<svg xmlns="http://www.w3.org/2000/svg" viewBox="0 0 2048 2048">
  <path d="M1024 25q141 0 272 36t244 104 207 160 161 207 103 245 37 272q0 165-50 318t-143 281-221 224-286 149q-3 1-9 1t-9 1q-23 0-37-13t-15-38v-140q0-69 1-141 0-51-15-103t-54-87q117-13 205-48t146-97 87-150 29-210q0-78-25-148t-80-127q11-28 16-58t5-60q0-39-8-77t-23-76q-3-2-6-2t-7 0q-35 0-71 9t-70 25-67 34-61 39q-126-35-256-35t-256 35q-29-19-61-38t-67-34-70-25-71-10h-6q-3 0-7 2-14 37-22 75t-9 78q0 30 5 60t16 58q-54 57-79 127t-26 148q0 120 29 209t87 150 145 98 205 49q-29 26-44 62t-21 75q-27 13-57 20t-60 7q-47 0-79-16t-56-40-45-53-42-52-49-41-67-16h-12q-8 0-15 3t-14 6-6 10q0 14 15 24t25 19q24 18 40 34t28 33 22 36 24 47q38 79 96 114t146 35q26 0 52-3t52-9v174q0 24-14 38t-39 14q-9 0-17-2-157-52-286-148t-221-224-142-281-51-319q0-141 36-272t104-244 160-207 207-161T752 62t272-37z" />
</svg>